<svg width="305" height="257" viewBox="0 0 305 257" fill="none" xmlns="http://www.w3.org/2000/svg">
<path fill-rule="evenodd" clip-rule="evenodd" d="M116.883 0.875998C115.636 1.202 115.54 4.552 115.356 53.969C115.217 91.524 114.918 106.793 114.32 106.993C113.857 107.147 110.96 103.053 107.881 97.896C99.751 84.277 83.49 59.793 80.769 57.072C79.953 56.256 72.334 56.1 41.061 56.26L2.362 56.458L28.525 91.191C62.709 136.572 64.873 141.169 56.154 149.888C50.654 155.388 46.722 156.076 20.792 156.076H0.275002V187.709V219.342L3.595 219.84C11.414 221.012 72.917 219.776 78.137 218.341C91.544 214.657 103.507 206.122 111.204 194.75C115.137 188.937 115.144 188.979 115.36 222.802C115.497 244.307 115.823 254.351 116.407 255.054C117.142 255.939 189.014 256.754 189.749 255.885C189.838 255.781 190.096 241.296 190.322 223.697C190.582 203.404 191.012 191.609 191.496 191.453C191.916 191.318 193.752 193.256 195.576 195.76C202.501 205.263 213.815 213.871 223.176 216.757C225.485 217.469 228.405 218.42 229.664 218.871C232.263 219.8 296.039 220.664 301.508 219.843L304.872 219.339L304.673 187.899L304.473 156.458L282.718 156.039C250.925 155.426 244.314 152.17 246.415 138.159C247.324 132.096 271.558 96.74 290.119 74.397C293.939 69.798 302.353 58.501 302.77 57.412C303.252 56.151 301.128 56.078 264.564 56.101L225.847 56.127L221.565 62.018C215.384 70.522 205.953 84.88 199.897 95.008C194.227 104.49 192.025 107.402 191.004 106.771C190.645 106.549 190.351 82.87 190.351 54.15C190.351 3.304 190.312 1.911 188.875 1.141C187.421 0.362997 119.795 0.113998 116.883 0.875998Z" fill="#0044CD"/>
</svg>
