<svg width="120" height="150" viewBox="0 0 120 225" fill="none" xmlns="http://www.w3.org/2000/svg">
    <g transform="translate(1.17,37.72)">
        <path d="M0.736572 127.053L26.4362 101.663H118.397C118.191 107.855 117.055 113.945 114.991 119.931C112.927 125.711 109.211 131.181 103.844 136.342C98.4775 141.296 91.9752 144.805 84.3375 146.869C76.6999 148.933 69.6816 149.966 63.2825 149.966C54.8192 149.966 46.5623 148.624 38.5119 145.94C30.4614 143.05 23.3398 138.509 17.1472 132.317C15.2894 130.046 13.1219 128.911 10.6448 128.911C8.78704 128.911 6.92924 129.633 5.07144 131.078L0.736572 127.053ZM6.61961 51.5023H73.81C81.8605 51.5023 89.1885 53.2569 95.794 56.7661C102.399 60.2752 107.87 65.4358 112.205 72.2477C116.539 79.0596 118.604 87.1101 118.397 96.3991H51.8261C43.5692 96.3991 36.0348 94.6445 29.2229 91.1353C22.6174 87.6261 17.1472 82.4656 12.8123 75.6537C8.4774 68.8417 6.41318 60.7913 6.61961 51.5023ZM117.159 22.3968L93.0073 46.5482H6.61961C6.82603 42.0069 7.75493 37.2592 9.4063 32.305C11.0577 27.1445 13.8444 22.2936 17.7664 17.7523C21.8949 13.0046 27.4683 8.97936 34.4866 5.67659C41.505 2.16743 50.2779 0.412842 60.8054 0.412842C67.8238 0.412842 74.6357 1.54817 81.2412 3.8188C87.8467 6.08944 94.5554 10.6307 101.367 17.4427C104.464 19.5069 106.631 20.539 107.87 20.539C109.934 20.539 111.688 19.8165 113.133 18.3716L117.159 22.3968Z" fill="white"/>
    </g>
</svg>