<svg width="562" height="563" viewBox="0 0 562 563" fill="none" xmlns="http://www.w3.org/2000/svg">
<path fill-rule="evenodd" clip-rule="evenodd" d="M94.421 409.115L93.981 357.775H62.001C59.372 357.775 57.231 360.015 57.231 362.775V405.725C57.231 408.475 59.372 410.715 62.001 410.715L94.421 409.115ZM161.231 410.725V331.775H127.731C124.971 331.775 122.731 334.015 122.731 336.775V405.725C122.731 408.485 124.971 410.725 127.731 410.725H161.231ZM227.481 410.735V310.495C227.481 307.315 224.901 304.735 221.721 304.735H195.491C192.311 304.735 189.731 307.315 189.731 310.495V404.965C189.731 408.145 192.311 410.725 195.491 410.725H215.261V410.735H227.481ZM293.481 404.965V271.815C293.481 268.635 290.902 266.055 287.721 266.055H261.491C258.311 266.055 255.731 268.635 255.731 271.815V404.965C255.731 408.145 258.311 410.725 261.491 410.725H281.261L293.412 405.795C293.461 405.525 293.481 405.245 293.481 404.965ZM359.792 410.725V231.615C359.792 228.555 357.311 226.075 354.251 226.075H339.591V226.055H320.981V405.195C320.981 408.255 323.461 410.735 326.521 410.735H354.251C354.351 410.735 354.452 410.725 354.551 410.725H359.792ZM428.311 410.725V200.055H408.981V200.075H393.742C390.561 200.075 387.981 202.655 387.981 205.835V404.975C387.981 408.155 390.561 410.735 393.742 410.735H422.551C422.662 410.735 422.761 410.725 422.872 410.725H428.311ZM452.481 93.305L435.231 83.805C435.042 83.705 434.851 83.605 434.671 83.515C434.671 83.515 333.381 221.735 73.981 289.665C71.271 290.375 66.551 291.555 66.481 292.005C66.421 292.375 70.251 292.155 74.852 291.485C132.531 283.135 333.881 243.995 452.481 93.305ZM552.981 281.155C552.981 219.355 532.362 162.375 497.631 116.715C496.902 118.775 496.251 120.495 495.671 121.945C495.101 123.395 494.601 124.555 494.181 125.485C495.572 127.375 496.931 129.295 498.261 131.225H468.521V131.235C468.471 131.225 468.412 131.225 468.362 131.225C459.292 131.225 451.942 138.575 451.942 147.635C451.942 147.695 451.952 147.745 451.952 147.805H451.942V409.965C451.942 413.345 454.692 416.095 458.072 416.095H494.211C500.202 416.095 505.061 411.605 505.061 406.055C505.061 405.565 505.011 405.085 504.942 404.615V141.375C530.311 181.905 544.981 229.815 544.981 281.155C544.981 426.885 426.841 545.015 281.112 545.015C135.392 545.015 17.251 426.885 17.251 281.155C17.251 135.425 135.392 17.285 281.112 17.285C324.652 17.285 365.731 27.835 401.931 46.515C403.521 45.555 406.152 44.115 410.492 41.985C372.011 21.125 327.942 9.28497 281.112 9.28497C130.971 9.28497 9.25101 131.005 9.25101 281.155C9.25101 431.295 130.971 553.015 281.112 553.015C431.261 553.015 552.981 431.295 552.981 281.155ZM478.101 30.635C478.591 31.045 478.542 30.635 478.141 33.175C477.332 38.355 475.662 49.595 472.981 70.055C472.731 71.935 472.481 73.695 472.231 75.335C471.572 79.575 470.891 83.025 470.211 85.835C469.251 89.815 468.311 92.515 467.452 94.335C474.622 101.485 481.381 109.045 487.692 116.975C488.381 113.445 488.742 109.595 488.902 105.835C489.131 100.745 488.992 95.815 488.782 92.045C493.021 96.695 497.101 101.495 501.021 106.425C539.181 154.385 561.981 215.105 561.981 281.155C561.981 436.265 436.231 562.015 281.112 562.015C126.001 562.015 0.251007 436.265 0.251007 281.155C0.251007 126.035 126.001 0.284973 281.112 0.284973C331.832 0.284973 379.412 13.725 420.481 37.245C425.711 40.245 430.832 43.395 435.841 46.705C432.671 47.105 427.652 47.805 422.322 48.795C418.481 49.495 414.471 50.355 410.891 51.365C417.761 55.235 424.431 59.425 430.891 63.885L437.782 58.945L445.501 53.395L475.582 31.815C475.582 31.815 477.601 30.225 478.101 30.635Z" fill="#BABAB5"/>
</svg>
